<svg width="281.75747070312497px" height="122px" xmlns="http://www.w3.org/2000/svg" viewBox="109.12126464843752 14 281.75747070312497 122" style="background: rgba(146, 208, 213, 0);" preserveAspectRatio="xMidYMid"><defs><linearGradient id="editing-outline-gradient" x1="0.8255681544571567" x2="0.17443184554284336" y1="1.445518575599317" y2="-0.44551857559931685"><stop offset="0" stop-color="#85a2b6"></stop><stop offset="1" stop-color="#8f008e"></stop></linearGradient><filter id="editing-outline" x="-100%" y="-100%" width="300%" height="300%"><feMorphology in="SourceGraphic" operator="dilate" radius="6" result="outline"></feMorphology><feComposite operator="out" in="outline" in2="SourceAlpha"></feComposite></filter></defs><g filter="url(#editing-outline)"><g transform="translate(153.12500381469727, 95.22500038146973)"><path d="M15.88-37.64L15.88-37.64Q22.03-37.64 26.54-35.34L26.54-35.34L26.54-35.34Q31.05-33.05 33.45-28.78L33.45-28.78L33.45-28.78Q35.86-24.52 35.86-18.74L35.86-18.74L35.86-18.74Q35.86-12.96 33.45-8.72L33.45-8.72L33.45-8.72Q31.05-4.48 26.54-2.24L26.54-2.24L26.54-2.24Q22.03 0 15.88 0L15.88 0L4.16 0L4.16-37.64L15.88-37.64ZM15.88-3.78L15.88-3.78Q23.11-3.78 26.97-7.75L26.97-7.75L26.97-7.75Q30.83-11.72 30.83-18.74L30.83-18.74L30.83-18.74Q30.83-25.76 26.97-29.70L26.97-29.70L26.97-29.70Q23.11-33.64 15.88-33.64L15.88-33.64L9.07-33.64L9.07-3.78L15.88-3.78ZM41.31-21.87L62.86-21.87L62.86-17.71L41.31-17.71L41.31-21.87ZM77.00-37.64L77.00-3.78L90.18-3.78L90.18 0L72.09 0L72.09-37.64L77.00-37.64ZM93.58-14.90L93.58-14.90Q93.58-19.44 95.42-22.87L95.42-22.87L95.42-22.87Q97.25-26.30 100.47-28.19L100.47-28.19L100.47-28.19Q103.68-30.08 107.62-30.08L107.62-30.08L107.62-30.08Q111.51-30.08 114.37-28.40L114.37-28.40L114.37-28.40Q117.23-26.73 118.64-24.19L118.64-24.19L118.64-29.59L123.61-29.59L123.61 0L118.64 0L118.64-5.51L118.64-5.51Q117.18-2.92 114.29-1.22L114.29-1.22L114.29-1.22Q111.40 0.49 107.57 0.49L107.57 0.49L107.57 0.49Q103.63 0.49 100.44-1.46L100.44-1.46L100.44-1.46Q97.25-3.40 95.42-6.91L95.42-6.91L95.42-6.91Q93.58-10.42 93.58-14.90L93.58-14.90ZM118.64-14.85L118.64-14.85Q118.64-18.20 117.29-20.68L117.29-20.68L117.29-20.68Q115.94-23.17 113.64-24.49L113.64-24.49L113.64-24.49Q111.35-25.81 108.59-25.81L108.59-25.81L108.59-25.81Q105.84-25.81 103.57-24.52L103.57-24.52L103.57-24.52Q101.30-23.22 99.95-20.74L99.95-20.74L99.95-20.74Q98.60-18.25 98.60-14.90L98.60-14.90L98.60-14.90Q98.60-11.50 99.95-8.99L99.95-8.99L99.95-8.99Q101.30-6.48 103.57-5.16L103.57-5.16L103.57-5.16Q105.84-3.83 108.59-3.83L108.59-3.83L108.59-3.83Q111.35-3.83 113.64-5.16L113.64-5.16L113.64-5.16Q115.94-6.48 117.29-8.99L117.29-8.99L117.29-8.99Q118.64-11.50 118.64-14.85L118.64-14.85ZM136.84-24.08L136.84-24.08Q138.35-26.73 141.26-28.40L141.26-28.40L141.26-28.40Q144.18-30.08 147.91-30.08L147.91-30.08L147.91-30.08Q151.90-30.08 155.09-28.19L155.09-28.19L155.09-28.19Q158.27-26.30 160.11-22.87L160.11-22.87L160.11-22.87Q161.95-19.44 161.95-14.90L161.95-14.90L161.95-14.90Q161.95-10.42 160.11-6.91L160.11-6.91L160.11-6.91Q158.27-3.40 155.06-1.46L155.06-1.46L155.06-1.46Q151.85 0.49 147.91 0.49L147.91 0.49L147.91 0.49Q144.07 0.49 141.18-1.19L141.18-1.19L141.18-1.19Q138.29-2.86 136.84-5.45L136.84-5.45L136.84 0L131.92 0L131.92-39.96L136.84-39.96L136.84-24.08ZM156.92-14.90L156.92-14.90Q156.92-18.25 155.57-20.74L155.57-20.74L155.57-20.74Q154.22-23.22 151.93-24.52L151.93-24.52L151.93-24.52Q149.63-25.81 146.88-25.81L146.88-25.81L146.88-25.81Q144.18-25.81 141.89-24.49L141.89-24.49L141.89-24.49Q139.59-23.17 138.21-20.66L138.21-20.66L138.21-20.66Q136.84-18.14 136.84-14.85L136.84-14.85L136.84-14.85Q136.84-11.50 138.21-8.99L138.21-8.99L138.21-8.99Q139.59-6.48 141.89-5.16L141.89-5.16L141.89-5.16Q144.18-3.83 146.88-3.83L146.88-3.83L146.88-3.83Q149.63-3.83 151.93-5.16L151.93-5.16L151.93-5.16Q154.22-6.48 155.57-8.99L155.57-8.99L155.57-8.99Q156.92-11.50 156.92-14.90L156.92-14.90ZM178.85 0.49L178.85 0.49Q175.45 0.49 172.77-0.68L172.77-0.68L172.77-0.68Q170.10-1.84 168.53-3.92L168.53-3.92L168.53-3.92Q166.97-5.99 166.81-8.69L166.81-8.69L171.88-8.69L171.88-8.69Q172.10-6.37 173.96-4.91L173.96-4.91L173.96-4.91Q175.82-3.46 178.85-3.46L178.85-3.46L178.85-3.46Q181.71-3.46 183.30-4.72L183.30-4.72L183.30-4.72Q184.90-5.99 184.90-8.05L184.90-8.05L184.90-8.05Q184.90-9.99 183.17-10.94L183.17-10.94L183.17-10.94Q181.44-11.88 177.82-12.80L177.82-12.80L177.82-12.80Q174.53-13.66 172.48-14.53L172.48-14.53L172.48-14.53Q170.42-15.39 168.97-17.09L168.97-17.09L168.97-17.09Q167.51-18.79 167.51-21.60L167.51-21.60L167.51-21.60Q167.51-23.92 168.80-25.87L168.80-25.87L168.80-25.87Q170.10-27.81 172.56-28.94L172.56-28.94L172.56-28.94Q175.01-30.08 178.25-30.08L178.25-30.08L178.25-30.08Q183.17-30.08 186.19-27.59L186.19-27.59L186.19-27.59Q189.22-25.11 189.43-20.79L189.43-20.79L184.52-20.79L184.52-20.79Q184.36-23.22 182.66-24.68L182.66-24.68L182.66-24.68Q180.95-26.14 178.09-26.14L178.09-26.14L178.09-26.14Q175.39-26.14 173.85-24.95L173.85-24.95L173.85-24.95Q172.31-23.76 172.31-21.82L172.31-21.82L172.31-21.82Q172.31-20.30 173.29-19.36L173.29-19.36L173.29-19.36Q174.26-18.41 175.66-17.90L175.66-17.90L175.66-17.90Q177.07-17.39 179.66-16.63L179.66-16.63L179.66-16.63Q182.90-15.77 184.84-14.93L184.84-14.93L184.84-14.93Q186.79-14.09 188.19-12.47L188.19-12.47L188.19-12.47Q189.59-10.85 189.59-8.15L189.59-8.15L189.59-8.15Q189.59-5.67 188.27-3.73L188.27-3.73L188.27-3.73Q186.95-1.78 184.52-0.65L184.52-0.65L184.52-0.65Q182.09 0.49 178.85 0.49L178.85 0.49Z" fill="url(#editing-outline-gradient)"></path></g></g><style>text {
  font-size: 64px;
  font-family: Arial Black;
  dominant-baseline: central;
  text-anchor: middle;
}</style></svg>